<svg width="52" height="52" viewBox="0 0 52 52" fill="none" xmlns="http://www.w3.org/2000/svg">
<g clip-path="url(#clip0_1_3922)">
<mask id="mask0_1_3922" style="mask-type:luminance" maskUnits="userSpaceOnUse" x="0" y="0" width="52" height="52">
<path d="M52 0H0V52H52V0Z" fill="white"/>
</mask>
<g mask="url(#mask0_1_3922)">
<path d="M0 0H52V52H0V0Z" fill="#F7DF1E"/>
<path d="M13.6727 43.455L17.6521 41.0468C18.4198 42.4079 19.1182 43.5596 20.7933 43.5596C22.399 43.5596 23.4114 42.9315 23.4114 40.4883V23.873H28.2981V40.5574C28.2981 45.6187 25.3313 47.9225 21.0028 47.9225C17.0936 47.9225 14.8245 45.8983 13.6727 43.455Z" fill="black"/>
<path d="M30.9524 42.9314L34.9313 40.6277C35.9787 42.3383 37.3401 43.5947 39.7484 43.5947C41.7732 43.5947 43.0644 42.5823 43.0644 41.1861C43.0644 39.5106 41.738 38.9172 39.504 37.9402L38.2827 37.4163C34.757 35.9156 32.4182 34.0306 32.4182 30.0513C32.4182 26.3862 35.2106 23.5938 39.574 23.5938C42.6806 23.5938 44.9146 24.6759 46.52 27.5033L42.7153 29.9466C41.8775 28.4458 40.9702 27.8525 39.5741 27.8525C38.1429 27.8525 37.2353 28.76 37.2353 29.9466C37.2353 31.4127 38.1429 32.0061 40.237 32.9137L41.4586 33.4373C45.6124 35.2176 47.9512 37.0324 47.9512 41.1162C47.9512 45.5146 44.4956 47.923 39.8532 47.923C35.3155 47.923 32.3833 45.7589 30.9524 42.9314Z" fill="black"/>
</g>
</g>
<defs>
<clipPath id="clip0_1_3922">
<rect width="52" height="52" fill="white"/>
</clipPath>
</defs>
</svg>
