<svg width="41" height="40" viewBox="0 0 41 40" fill="none" xmlns="http://www.w3.org/2000/svg">
<path fill-rule="evenodd" clip-rule="evenodd" d="M16.2111 7.59615C9.93564 11.6263 6.44934 16.3172 5.7522 21.6686C4.6669 29.9995 12.1171 34.0773 15.892 30.4134C19.6669 26.7496 17.4041 22.0992 14.6706 20.828C11.9372 19.5568 10.2656 19.9995 10.5572 18.3008C10.8488 16.6021 14.7376 11.8923 18.1541 9.69884C18.3808 9.50609 18.4671 9.13209 18.2488 8.84834C18.1052 8.66176 17.8236 8.2958 17.4041 7.75044C17.0371 7.27355 16.6856 7.2914 16.2111 7.59615Z" fill="#1468FB"/>
<path fill-rule="evenodd" clip-rule="evenodd" d="M32.733 7.59615C26.4575 11.6263 22.9712 16.3172 22.274 21.6686C21.1888 29.9995 28.639 34.0773 32.4139 30.4134C36.1888 26.7496 33.926 22.0992 31.1925 20.828C28.4591 19.5568 26.7875 19.9995 27.0791 18.3008C27.3707 16.6021 31.2595 11.8923 34.676 9.69884C34.9027 9.50609 34.989 9.13209 34.7706 8.84834C34.6271 8.66176 34.3455 8.2958 33.926 7.75044C33.559 7.27355 33.2075 7.2914 32.733 7.59615Z" fill="#1468FB"/>
</svg>
