<svg width="52" height="52" viewBox="0 0 52 52" fill="none" xmlns="http://www.w3.org/2000/svg">
<path d="M50.8016 26.0041C50.8016 22.7182 46.6864 19.604 40.3774 17.6729C41.8334 11.2424 41.1863 6.12637 38.3351 4.48842C37.6778 4.10422 36.9095 3.92222 36.0702 3.92222V6.17692C36.5352 6.17692 36.9095 6.26792 37.2228 6.4398C38.5978 7.22844 39.1944 10.2313 38.7293 14.0937C38.6182 15.0441 38.4361 16.045 38.2137 17.0663C36.232 16.5809 34.0683 16.2068 31.7933 15.9641C30.4283 14.0937 29.0129 12.395 27.5873 10.9088C30.8833 7.84519 33.9773 6.16681 36.0804 6.16681V3.91211C33.2999 3.91211 29.66 5.89381 25.9797 9.33148C22.2993 5.91404 18.6594 3.95256 15.879 3.95256V6.20726C17.9719 6.20726 21.076 7.87553 24.3721 10.9189C22.9566 12.4052 21.541 14.0937 20.1963 15.9641C17.9113 16.2068 15.7475 16.5809 13.7658 17.0763C13.5333 16.0653 13.3614 15.0845 13.2401 14.1442C12.7649 10.2819 13.3513 7.279 14.7162 6.48024C15.0196 6.29824 15.4139 6.21737 15.879 6.21737V3.96266C15.0297 3.96266 14.2613 4.14465 13.5939 4.52886C10.7528 6.16681 10.1158 11.2728 11.5819 17.6829C5.29299 19.6243 1.19812 22.7282 1.19812 26.0041C1.19812 29.2902 5.31321 32.4043 11.6223 34.3355C10.1664 40.7659 10.8135 45.8819 13.6647 47.5199C14.3219 47.904 15.0903 48.086 15.9396 48.086C18.72 48.086 22.36 46.1044 26.0403 42.6667C29.7206 46.0842 33.3605 48.0456 36.141 48.0456C36.9902 48.0456 37.7587 47.8636 38.4261 47.4794C41.2671 45.8414 41.9041 40.7355 40.438 34.3254C46.7068 32.3942 50.8016 29.2801 50.8016 26.0041ZM37.6373 19.2603C37.2632 20.5646 36.7982 21.9092 36.2725 23.2541C35.8579 22.4452 35.4231 21.6362 34.9479 20.8275C34.4829 20.0186 33.9874 19.2299 33.4919 18.4615C34.9276 18.6739 36.3129 18.9368 37.6373 19.2603ZM33.0067 30.0282C32.2179 31.3932 31.4092 32.6874 30.57 33.8905C29.0635 34.022 27.5366 34.0928 25.9999 34.0928C24.4732 34.0928 22.9463 34.022 21.45 33.9006C20.6109 32.6975 19.7919 31.4134 19.0033 30.0586C18.2348 28.7341 17.5372 27.3894 16.9002 26.0345C17.527 24.6797 18.2348 23.3248 18.993 22.0002C19.7818 20.6354 20.5906 19.3411 21.4297 18.1379C22.9363 18.0065 24.4631 17.9358 25.9999 17.9358C27.5266 17.9358 29.0532 18.0065 30.5497 18.1279C31.3889 19.331 32.2078 20.6151 32.9965 21.97C33.7649 23.2944 34.4625 24.6392 35.0995 25.994C34.4625 27.3489 33.7649 28.7037 33.0067 30.0282ZM36.2725 28.7138C36.8185 30.0687 37.2835 31.4235 37.6677 32.7379C36.3432 33.0615 34.9479 33.3345 33.502 33.5468C33.9975 32.7683 34.4929 31.9695 34.958 31.1506C35.4231 30.3417 35.8579 29.5227 36.2725 28.7138ZM26.02 39.502C25.0798 38.5314 24.1394 37.4496 23.2093 36.2666C24.1193 36.3071 25.0494 36.3373 25.9898 36.3373C26.9401 36.3373 27.8805 36.3171 28.8006 36.2666C27.8906 37.4496 26.9503 38.5314 26.02 39.502ZM18.4977 33.5468C17.0619 33.3345 15.6768 33.0715 14.3522 32.748C14.7263 31.4438 15.1914 30.0991 15.7172 28.7542C16.1317 29.5632 16.5666 30.3721 17.0417 31.1808C17.5169 31.9898 18.0023 32.7784 18.4977 33.5468ZM25.9695 12.5063C26.9099 13.4769 27.8501 14.5588 28.7804 15.7417C27.8704 15.7013 26.9401 15.6709 25.9999 15.6709C25.0494 15.6709 24.1092 15.6912 23.1891 15.7417C24.0991 14.5588 25.0393 13.4769 25.9695 12.5063ZM18.4875 18.4615C17.9922 19.24 17.4967 20.0389 17.0317 20.8577C16.5666 21.6666 16.1317 22.4756 15.7172 23.2843C15.1712 21.9296 14.7061 20.5746 14.3219 19.2603C15.6464 18.9469 17.0417 18.6739 18.4875 18.4615ZM9.33729 31.1202C5.75808 29.5935 3.44272 27.5915 3.44272 26.0041C3.44272 24.4168 5.75808 22.4047 9.33729 20.8881C10.2068 20.514 11.1572 20.1804 12.138 19.8669C12.7143 21.8486 13.4726 23.9112 14.4129 26.0244C13.4827 28.1275 12.7345 30.1798 12.1683 32.1515C11.1673 31.838 10.2169 31.4943 9.33729 31.1202ZM14.7769 45.5686C13.4018 44.7798 12.8053 41.777 13.2704 37.9147C13.3816 36.9642 13.5636 35.9632 13.786 34.9421C15.7678 35.4275 17.9314 35.8015 20.2064 36.0441C21.5714 37.9147 22.9868 39.6133 24.4124 41.0995C21.1164 44.1631 18.0224 45.8414 15.9194 45.8414C15.4644 45.8314 15.0802 45.7404 14.7769 45.5686ZM38.7597 37.8641C39.2348 41.7264 38.6484 44.7293 37.2835 45.5281C36.9802 45.7101 36.5858 45.7909 36.1207 45.7909C34.0279 45.7909 30.9238 44.1227 27.6276 41.0794C29.0432 39.593 30.4587 37.9046 31.8034 36.0341C34.0885 35.7915 36.2522 35.4172 38.2338 34.9219C38.4664 35.9431 38.6484 36.9238 38.7597 37.8641ZM42.6524 31.1202C41.7828 31.4943 40.8324 31.8279 39.8517 32.1414C39.2753 30.1597 38.5171 28.0971 37.5767 25.9839C38.5068 23.8809 39.2552 21.8285 39.8213 19.8569C40.8223 20.1702 41.7726 20.514 42.6625 20.8881C46.2417 22.4148 48.557 24.4168 48.557 26.0041C48.5469 27.5915 46.2316 29.6036 42.6524 31.1202Z" fill="#61DAFB"/>
<path d="M25.9898 30.623C28.5419 30.623 30.6105 28.5544 30.6105 26.0025C30.6105 23.4506 28.5419 21.3818 25.9898 21.3818C23.4379 21.3818 21.3693 23.4506 21.3693 26.0025C21.3693 28.5544 23.4379 30.623 25.9898 30.623Z" fill="#61DAFB"/>
</svg>
