<svg width="31" height="31" viewBox="0 0 31 31" fill="none" xmlns="http://www.w3.org/2000/svg">
<path d="M0 2.62201C0.142317 2.55331 0.127594 2.40118 0.171762 2.28831C0.39022 1.68521 0.792263 1.16577 1.32133 0.803087C1.85039 0.440399 2.47986 0.25271 3.12116 0.266425H27.3003C27.7307 0.248293 28.1601 0.319868 28.5613 0.476602C28.9626 0.633335 29.3268 0.871803 29.631 1.17686C29.9351 1.48191 30.1724 1.84688 30.328 2.24858C30.4835 2.65029 30.5538 3.07995 30.5343 3.51027C30.5343 6.20938 30.5343 8.90849 30.5343 11.6027V27.2674C30.5343 29.1224 29.6755 30.2119 27.8647 30.6584C27.8647 30.6584 27.8254 30.7026 27.8107 30.7222H2.56661C2.45374 30.5946 2.28688 30.5946 2.14457 30.5456C1.72835 30.4102 1.34538 30.1886 1.02065 29.8952C0.69593 29.6017 0.436768 29.2431 0.260096 28.8427C0.171762 28.6316 0.166854 28.4206 0 28.2587V2.62201ZM8.54883 17.0598C8.47798 17.0734 8.40886 17.0948 8.34271 17.1236C6.37972 18.1934 4.37256 19.278 2.38013 20.338C2.06605 20.5 2.1642 20.6275 2.29179 20.8288C3.4794 22.6642 4.6572 24.4995 5.8448 26.3349C5.90369 26.4233 5.92823 26.5607 6.09018 26.5754C6.27666 25.8687 6.46805 25.1621 6.64963 24.4554C6.70361 24.2296 6.78704 24.1217 7.05695 24.1266C8.7942 24.1609 10.5265 24.1855 12.2638 24.1904C14.8795 24.1904 17.5001 24.1904 20.1157 24.1904C20.6878 24.2276 21.2622 24.1763 21.8186 24.0382C26.0881 22.6347 28.2327 19.1308 28.375 15.1606C28.4575 13.4277 28.1189 11.7007 27.3882 10.1273C26.6574 8.55385 25.5564 7.18091 24.1791 6.12595C22.7275 4.90563 20.8832 4.25194 18.987 4.28565C14.8402 4.33963 10.6885 4.28565 6.54167 4.28565C6.19814 4.28565 6.05092 4.37889 5.98712 4.71751C5.09396 8.25089 4.18117 11.7794 3.27819 15.3078C2.94449 16.5691 2.63531 17.8352 2.30651 19.1259C2.37894 19.0997 2.44945 19.0686 2.51754 19.0326L8.83346 15.7299C8.9094 15.6896 8.97502 15.6323 9.02524 15.5625C9.07545 15.4927 9.1089 15.4123 9.123 15.3275C9.57449 13.6148 10.0456 11.8922 10.4824 10.1943C10.5609 9.88508 10.6787 9.80165 10.9731 9.80165C13.6493 9.80165 16.3272 9.80165 19.0067 9.80165C19.3751 9.79914 19.7382 9.89033 20.0618 10.0667C20.9119 10.5163 21.6111 11.2058 22.0726 12.0495C22.5342 12.8931 22.7377 13.8538 22.6578 14.8122C22.6038 16.6868 21.5095 17.9088 19.8998 18.7382C19.7689 18.8024 19.6233 18.8312 19.4778 18.8216C15.8266 18.8216 12.1804 18.8216 8.52919 18.8216C8.25438 18.8216 8.16604 18.7774 8.24456 18.4781C8.40043 18.0212 8.50735 17.5491 8.56355 17.0696L8.61753 17.0304C8.61753 17.0304 8.61753 17.0058 8.58808 17.0304C8.57379 17.0385 8.56059 17.0484 8.54883 17.0598Z" fill="#C00E0F"/>
</svg>
