<svg width="80" height="50" viewBox="0 0 80 50" fill="none" xmlns="http://www.w3.org/2000/svg">
<path d="M79.6498 0H0V49.9999H79.6498V0Z" fill="#FF9A15"/>
<path d="M79.6498 24.1611H0V50H79.6498V24.1611Z" fill="#37AA41"/>
<path d="M79.6977 16.4424H0V33.2688H79.6977V16.4424Z" fill="white"/>
<path d="M42.5936 25.4317C42.6015 25.4873 42.6015 25.5438 42.5936 25.5995L47.004 27.6368L42.4738 26.0069V26.1268L46.3808 28.9312L42.2581 26.5343C42.2512 26.5819 42.2512 26.6304 42.2581 26.6781L45.4939 30.2255L41.7307 26.9418L44.2715 31.0165L41.3952 27.2054H41.2274L42.9052 31.7116L40.772 27.517H40.6281L41.4191 32.3108L40.2207 27.6608H40.0529L39.8372 32.4547L39.6214 27.6608L38.5189 32.4547L39.19 27.6608H39.0222L36.9369 32.0232L38.5908 27.493L35.7624 31.424L38.1593 27.2773H38.0155L34.4441 30.5371L37.6799 26.9897L33.5812 29.5544L37.4163 26.6541V26.5103L32.8861 28.1402L37.2485 26.1028L32.4546 26.8938L37.1047 25.6953C37.0929 25.6319 37.0929 25.567 37.1047 25.5036L32.3108 25.3118L37.1047 25.0722V24.9523L32.3108 23.8737L37.1047 24.5448V24.353L32.7662 22.3396L37.2485 23.9456L33.3175 21.1412L37.4642 23.5381V23.3943L34.2044 19.8229L37.7039 22.7232L35.1632 18.6484L38.0634 22.4834H38.2312L36.5773 17.9533L38.5908 22.2917H38.7586L37.9915 17.4979L39.166 22.1239H39.3338L39.5495 17.3301L39.7653 22.1239L40.8439 17.4499L40.1727 22.2437H40.3645L42.3779 17.8814L40.772 22.3876L43.6003 18.4326L41.2034 22.5793L41.3472 22.6992L44.9426 19.4154L41.9225 22.7232L46.0931 20.3262L42.2581 23.2265V23.3943L46.8122 21.6925L42.4738 23.7538L47.2676 22.9868L42.4738 24.1613C42.4855 24.2247 42.4855 24.2897 42.4738 24.353L47.2676 24.5688L42.4738 24.7845L47.2676 25.8871L42.4738 25.216L42.5936 25.4317Z" fill="#2D3A8E"/>
<path d="M39.765 32.6222C38.2148 32.6222 36.6994 32.1625 35.4105 31.3013C34.1215 30.44 33.1169 29.2159 32.5237 27.7837C31.9304 26.3515 31.7752 24.7755 32.0777 23.2551C32.3801 21.7347 33.1266 20.3381 34.2227 19.242C35.3189 18.1458 36.7155 17.3993 38.2359 17.0969C39.7563 16.7945 41.3322 16.9497 42.7644 17.5429C44.1966 18.1362 45.4207 19.1407 46.282 20.4297C47.1432 21.7186 47.6029 23.234 47.6029 24.7842C47.6061 25.8144 47.4055 26.8351 47.0127 27.7874C46.62 28.7398 46.0428 29.6051 45.3143 30.3335C44.5859 31.062 43.7206 31.6392 42.7682 32.032C41.8158 32.4248 40.7952 32.6253 39.765 32.6222ZM39.765 17.4496C38.3076 17.4449 36.8816 17.8731 35.6678 18.6798C34.454 19.4866 33.5071 20.6355 32.9472 21.9811C32.3873 23.3266 32.2396 24.8082 32.5227 26.2379C32.8059 27.6675 33.5072 28.9809 34.5378 30.0114C35.5683 31.042 36.8817 31.7433 38.3114 32.0265C39.741 32.3096 41.2225 32.1619 42.5681 31.602C43.9137 31.0421 45.0627 30.0952 45.8694 28.8814C46.6762 27.6677 47.1043 26.2416 47.0996 24.7842C47.0932 22.8409 46.3185 20.979 44.9443 19.6049C43.5702 18.2307 41.7083 17.4559 39.765 17.4496Z" fill="#2D3A8E"/>
</svg>
