<svg width="45" height="44" viewBox="0 0 45 44" fill="none" xmlns="http://www.w3.org/2000/svg">
<path d="M16.2143 31.4284C24.893 31.4284 31.9285 24.3929 31.9285 15.7141C31.9285 14.7306 31.8382 13.7681 31.6653 12.8345C30.7318 12.6617 29.7693 12.5713 28.7857 12.5713C20.1069 12.5713 13.0714 19.6068 13.0714 28.2856C13.0714 29.2692 13.1618 30.2317 13.3347 31.1652C14.2682 31.3381 15.2307 31.4284 16.2143 31.4284Z" fill="#175CD3"/>
<path fill-rule="evenodd" clip-rule="evenodd" d="M13.3347 31.1653C6.03118 29.8127 0.5 23.4095 0.5 15.7143C0.5 7.03553 7.53553 0 16.2143 0C23.9095 0 30.3128 5.53118 31.6653 12.8347C30.7318 12.6618 29.7693 12.5714 28.7857 12.5714C20.107 12.5714 13.0714 19.607 13.0714 28.2857C13.0714 29.2693 13.1618 30.2318 13.3347 31.1653Z" fill="#1570EF"/>
<path fill-rule="evenodd" clip-rule="evenodd" d="M16.2142 31.4284C24.893 31.4284 31.9285 24.3928 31.9285 15.7141C31.9285 14.7305 31.8381 13.768 31.6652 12.8345C38.9687 14.187 44.4999 20.5903 44.4999 28.2855C44.4999 36.9643 37.4644 43.9998 28.7856 43.9998C21.0905 43.9998 14.6872 38.4686 13.3346 31.1651C14.2681 31.338 15.2306 31.4284 16.2142 31.4284Z" fill="#2E90FA"/>
</svg>
