<svg width="44" height="48" viewBox="0 0 44 48" fill="none" xmlns="http://www.w3.org/2000/svg">
<path d="M22.25 2C10.0997 2 0.25 11.8497 0.25 24C0.25 36.1503 10.0997 46 22.25 46C33.151 46 42.2002 38.0716 43.9458 27.6667H43.7879C42.1598 33.9925 36.4174 38.6667 29.5833 38.6667C21.4832 38.6667 14.9167 32.1002 14.9167 24C14.9167 15.8998 21.4832 9.33333 29.5833 9.33333C36.4174 9.33333 42.1598 14.0075 43.7879 20.3333H43.9458C42.2002 9.92838 33.151 2 22.25 2Z" fill="#A4BCFD"/>
<path d="M0.25 24C0.25 11.8497 10.0997 2 22.25 2C33.151 2 42.2002 9.92838 43.9458 20.3333H29.1213C27.4931 14.0075 21.7507 9.33333 14.9167 9.33333C6.81649 9.33333 0.25 15.8998 0.25 24Z" fill="#3538CD"/>
<path d="M0.25 24C0.25 36.1503 10.0997 46 22.25 46C33.151 46 42.2002 38.0716 43.9458 27.6667H29.1213C27.4931 33.9925 21.7507 38.6667 14.9167 38.6667C6.81649 38.6667 0.25 32.1002 0.25 24Z" fill="#3538CD"/>
</svg>
