<svg width="44" height="44" viewBox="0 0 44 44" fill="none" xmlns="http://www.w3.org/2000/svg">
<path d="M13.2775 20.3183C14.0998 17.25 17.2537 14.0961 20.322 13.2739L39.4509 8.14749C42.5192 7.32522 44.34 9.14597 43.5177 12.2142L38.3913 31.3432C37.5691 34.4115 34.4152 37.5654 31.3469 38.3877L12.2179 43.514C9.14964 44.3363 7.32889 42.5155 8.15116 39.4473L13.2775 20.3183Z" fill="#9E77ED"/>
<path d="M5.60884 12.6493C6.4311 9.58107 9.585 6.42717 12.6533 5.60491L31.7823 0.47854C34.8505 -0.343725 36.6713 1.47702 35.849 4.54529L30.7227 23.6743C29.9004 26.7425 26.7465 29.8964 23.6782 30.7187L4.54923 35.8451C1.48096 36.6673 -0.339793 34.8466 0.482471 31.7783L5.60884 12.6493Z" fill="#6941C6"/>
</svg>
