<svg width="75" height="50" viewBox="0 0 75 50" fill="none" xmlns="http://www.w3.org/2000/svg">
<path d="M75 0H0V50H75V0Z" fill="#B22234"/>
<path d="M0 5.76953H75H0ZM75 13.4618H0H75ZM0 21.1541H75H0ZM75 28.8465H0H75ZM0 36.5388H75H0ZM75 44.2311H0H75Z" fill="black"/>
<path d="M0 5.76953H75M75 13.4618H0M0 21.1541H75M75 28.8465H0M0 36.5388H75M75 44.2311H0" stroke="white" stroke-width="3.90625"/>
<path d="M30 0H0V26.9231H30V0Z" fill="#3C3B6E"/>
<path d="M2.50111 1.15039L3.21502 3.93349L1.34598 2.21344H3.65624L1.7872 3.93349L2.50111 1.15039Z" fill="white"/>
<path d="M2.50111 6.53418L3.21502 9.31728L1.34598 7.59723H3.65624L1.7872 9.31728L2.50111 6.53418Z" fill="white"/>
<path d="M2.50111 11.918L3.21502 14.7011L1.34598 12.981H3.65624L1.7872 14.7011L2.50111 11.918Z" fill="white"/>
<path d="M2.50111 17.3037L3.21502 20.0868L1.34598 18.3668H3.65624L1.7872 20.0868L2.50111 17.3037Z" fill="white"/>
<path d="M2.50102 22.6895L3.21492 25.4726L1.34589 23.7525H3.65614L1.78711 25.4726L2.50102 22.6895Z" fill="white"/>
<path d="M5.00056 3.84473L5.71447 6.62783L3.84543 4.90778H6.15569L4.28665 6.62783L5.00056 3.84473Z" fill="white"/>
<path d="M5.00056 9.22949L5.71447 12.0126L3.84543 10.2925H6.15569L4.28665 12.0126L5.00056 9.22949Z" fill="white"/>
<path d="M5.00056 14.6133L5.71447 17.3964L3.84543 15.6763H6.15569L4.28665 17.3964L5.00056 14.6133Z" fill="white"/>
<path d="M5.00056 19.999L5.71447 22.7821L3.84543 21.0621H6.15569L4.28665 22.7821L5.00056 19.999Z" fill="white"/>
<path d="M7.49989 1.15039L8.2138 3.93349L6.34476 2.21344H8.65502L6.78598 3.93349L7.49989 1.15039Z" fill="white"/>
<path d="M7.49989 6.53418L8.2138 9.31728L6.34476 7.59723H8.65502L6.78598 9.31728L7.49989 6.53418Z" fill="white"/>
<path d="M7.49989 11.918L8.2138 14.7011L6.34476 12.981H8.65502L6.78598 14.7011L7.49989 11.918Z" fill="white"/>
<path d="M7.49989 17.3037L8.2138 20.0868L6.34476 18.3668H8.65502L6.78598 20.0868L7.49989 17.3037Z" fill="white"/>
<path d="M7.49998 22.6895L8.21389 25.4726L6.34485 23.7525H8.65511L6.78607 25.4726L7.49998 22.6895Z" fill="white"/>
<path d="M10.0006 3.84473L10.7145 6.62783L8.84549 4.90778H11.1557L9.28671 6.62783L10.0006 3.84473Z" fill="white"/>
<path d="M10.0006 9.22949L10.7145 12.0126L8.84549 10.2925H11.1557L9.28671 12.0126L10.0006 9.22949Z" fill="white"/>
<path d="M10.0006 14.6133L10.7145 17.3964L8.84549 15.6763H11.1557L9.28671 17.3964L10.0006 14.6133Z" fill="white"/>
<path d="M10.0006 19.999L10.7145 22.7821L8.84549 21.0621H11.1557L9.28671 22.7821L10.0006 19.999Z" fill="white"/>
<path d="M12.4985 1.15039L13.2124 3.93349L11.3434 2.21344H13.6536L11.7846 3.93349L12.4985 1.15039Z" fill="white"/>
<path d="M12.4985 6.53418L13.2124 9.31728L11.3434 7.59723H13.6536L11.7846 9.31728L12.4985 6.53418Z" fill="white"/>
<path d="M12.4985 11.918L13.2124 14.7011L11.3434 12.981H13.6536L11.7846 14.7011L12.4985 11.918Z" fill="white"/>
<path d="M12.4985 17.3037L13.2124 20.0868L11.3434 18.3668H13.6536L11.7846 20.0868L12.4985 17.3037Z" fill="white"/>
<path d="M12.4988 22.6895L13.2127 25.4726L11.3436 23.7525H13.6539L11.7848 25.4726L12.4988 22.6895Z" fill="white"/>
<path d="M15.0004 3.84473L15.7143 6.62783L13.8453 4.90778H16.1556L14.2865 6.62783L15.0004 3.84473Z" fill="white"/>
<path d="M15.0004 9.22949L15.7143 12.0126L13.8453 10.2925H16.1556L14.2865 12.0126L15.0004 9.22949Z" fill="white"/>
<path d="M15.0004 14.6133L15.7143 17.3964L13.8453 15.6763H16.1556L14.2865 17.3964L15.0004 14.6133Z" fill="white"/>
<path d="M15.0004 19.999L15.7143 22.7821L13.8453 21.0621H16.1556L14.2865 22.7821L15.0004 19.999Z" fill="white"/>
<path d="M17.4987 1.15039L18.2126 3.93349L16.3436 2.21344H18.6539L16.7848 3.93349L17.4987 1.15039Z" fill="white"/>
<path d="M17.4987 6.53418L18.2126 9.31728L16.3436 7.59723H18.6539L16.7848 9.31728L17.4987 6.53418Z" fill="white"/>
<path d="M17.4987 11.918L18.2126 14.7011L16.3436 12.981H18.6539L16.7848 14.7011L17.4987 11.918Z" fill="white"/>
<path d="M17.4987 17.3037L18.2126 20.0868L16.3436 18.3668H18.6539L16.7848 20.0868L17.4987 17.3037Z" fill="white"/>
<path d="M17.499 22.6895L18.2129 25.4726L16.3439 23.7525H18.6541L16.7851 25.4726L17.499 22.6895Z" fill="white"/>
<path d="M19.9997 3.84473L20.7136 6.62783L18.8445 4.90778H21.1548L19.2858 6.62783L19.9997 3.84473Z" fill="white"/>
<path d="M19.9997 9.22949L20.7136 12.0126L18.8445 10.2925H21.1548L19.2858 12.0126L19.9997 9.22949Z" fill="white"/>
<path d="M19.9997 14.6133L20.7136 17.3964L18.8445 15.6763H21.1548L19.2858 17.3964L19.9997 14.6133Z" fill="white"/>
<path d="M19.9997 19.999L20.7136 22.7821L18.8445 21.0621H21.1548L19.2858 22.7821L19.9997 19.999Z" fill="white"/>
<path d="M22.4997 1.15137L23.2136 3.93447L21.3445 2.21442H23.6548L21.7858 3.93447L22.4997 1.15137Z" fill="white"/>
<path d="M22.4995 6.53516L23.2134 9.31826L21.3443 7.59821H23.6546L21.7856 9.31826L22.4995 6.53516Z" fill="white"/>
<path d="M22.4995 11.918L23.2134 14.7011L21.3443 12.981H23.6546L21.7856 14.7011L22.4995 11.918Z" fill="white"/>
<path d="M22.4995 17.3047L23.2134 20.0878L21.3443 18.3677H23.6546L21.7856 20.0878L22.4995 17.3047Z" fill="white"/>
<path d="M22.4996 22.6904L23.2135 25.4735L21.3444 23.7535H23.6547L21.7856 25.4735L22.4996 22.6904Z" fill="white"/>
<path d="M24.9991 3.84473L25.713 6.62783L23.8439 4.90778H26.1542L24.2852 6.62783L24.9991 3.84473Z" fill="white"/>
<path d="M24.9991 9.23047L25.713 12.0136L23.8439 10.2935H26.1542L24.2852 12.0136L24.9991 9.23047Z" fill="white"/>
<path d="M24.9991 14.6143L25.713 17.3974L23.8439 15.6773H26.1542L24.2852 17.3974L24.9991 14.6143Z" fill="white"/>
<path d="M24.9991 19.999L25.713 22.7821L23.8439 21.0621H26.1542L24.2852 22.7821L24.9991 19.999Z" fill="white"/>
<path d="M27.5006 1.15137L28.2145 3.93447L26.3454 2.21442H28.6557L26.7866 3.93447L27.5006 1.15137Z" fill="white"/>
<path d="M27.5006 6.53613L28.2145 9.31924L26.3454 7.59918H28.6557L26.7866 9.31924L27.5006 6.53613Z" fill="white"/>
<path d="M27.5006 11.9199L28.2145 14.703L26.3454 12.983H28.6557L26.7866 14.703L27.5006 11.9199Z" fill="white"/>
<path d="M27.5006 17.3057L28.2145 20.0888L26.3454 18.3687H28.6557L26.7866 20.0888L27.5006 17.3057Z" fill="white"/>
<path d="M27.5008 22.6914L28.2147 25.4745L26.3456 23.7545H28.6559L26.7869 25.4745L27.5008 22.6914Z" fill="white"/>
</svg>
